<svg width="20" height="20" viewBox="0 0 20 20" fill="none" xmlns="http://www.w3.org/2000/svg">
<path d="M18.8954 3.78838H5.47138L4.69837 1.97038C4.6594 1.87856 4.59935 1.79722 4.52308 1.73293C4.44681 1.66865 4.35646 1.62324 4.25937 1.60038L1.76937 1.01438C1.60671 0.979164 1.43672 1.00921 1.29599 1.09807C1.15526 1.18692 1.05504 1.32748 1.0169 1.48948C0.97876 1.65148 1.00575 1.82198 1.09205 1.96429C1.17836 2.10659 1.31708 2.20933 1.47837 2.25038L3.65538 2.76238L9.22937 15.8624C9.05381 16.1732 8.96038 16.5236 8.9579 16.8806C8.95543 17.2376 9.04399 17.5893 9.21522 17.9025C9.38646 18.2157 9.63471 18.4801 9.93654 18.6708C10.2384 18.8614 10.5838 18.9719 10.9402 18.9919C11.2966 19.0119 11.6523 18.9407 11.9735 18.785C12.2948 18.6294 12.5711 18.3944 12.7762 18.1023C12.9814 17.8102 13.1088 17.4706 13.1463 17.1156C13.1837 16.7606 13.1301 16.4019 12.9904 16.0734H15.2774C15.1012 16.4888 15.0635 16.95 15.1699 17.3886C15.2763 17.8272 15.5212 18.2198 15.8682 18.5083C16.2153 18.7968 16.646 18.9658 17.0967 18.9903C17.5473 19.0148 17.9938 18.8935 18.3701 18.6443C18.7464 18.3951 19.0324 18.0314 19.1857 17.6069C19.3391 17.1825 19.3516 16.7199 19.2215 16.2878C19.0913 15.8557 18.8254 15.477 18.4632 15.2078C18.101 14.9386 17.6617 14.7933 17.2104 14.7934L10.1594 14.8034L9.28938 12.7594H18.8964C18.9798 12.7594 19.0623 12.743 19.1394 12.711C19.2164 12.6791 19.2864 12.6324 19.3454 12.5734C19.4044 12.5144 19.4511 12.4444 19.483 12.3674C19.5149 12.2903 19.5314 12.2078 19.5314 12.1244V4.42338C19.5314 4.3399 19.5149 4.25725 19.4829 4.18015C19.451 4.10304 19.4041 4.03299 19.345 3.97401C19.286 3.91504 19.2158 3.86828 19.1387 3.83643C19.0615 3.80457 18.9788 3.78825 18.8954 3.78838ZM17.2114 16.0684C17.3755 16.0684 17.536 16.1171 17.6725 16.2083C17.809 16.2995 17.9154 16.4291 17.9782 16.5807C18.041 16.7324 18.0574 16.8993 18.0254 17.0603C17.9934 17.2213 17.9144 17.3692 17.7983 17.4853C17.6822 17.6014 17.5343 17.6804 17.3733 17.7124C17.2123 17.7445 17.0454 17.728 16.8937 17.6652C16.7421 17.6024 16.6125 17.496 16.5213 17.3595C16.4301 17.223 16.3814 17.0625 16.3814 16.8984C16.3814 16.6782 16.4688 16.4671 16.6245 16.3115C16.7801 16.1558 16.9912 16.0684 17.2114 16.0684ZM11.0604 16.0684C11.2245 16.0684 11.385 16.1171 11.5215 16.2083C11.658 16.2995 11.7644 16.4291 11.8272 16.5807C11.89 16.7324 11.9065 16.8993 11.8744 17.0603C11.8424 17.2213 11.7634 17.3692 11.6473 17.4853C11.5312 17.6014 11.3833 17.6804 11.2223 17.7124C11.0613 17.7445 10.8944 17.728 10.7427 17.6652C10.5911 17.6024 10.4615 17.496 10.3703 17.3595C10.2791 17.223 10.2304 17.0625 10.2304 16.8984C10.2304 16.6782 10.3178 16.4671 10.4735 16.3115C10.6291 16.1558 10.8402 16.0684 11.0604 16.0684ZM18.2604 7.64038H14.0514C13.883 7.64038 13.7214 7.70728 13.6024 7.82637C13.4833 7.94546 13.4164 8.10697 13.4164 8.27538C13.4164 8.4438 13.4833 8.60531 13.6024 8.7244C13.7214 8.84348 13.883 8.91038 14.0514 8.91038H18.2604V11.4924H8.74938L6.01138 5.05638H18.2604V7.64038Z" fill="white" stroke="white" stroke-width="0.1"/>
</svg>
