<svg width="19" height="20" viewBox="0 0 19 20" fill="none" xmlns="http://www.w3.org/2000/svg">
<path d="M15.5111 16.1L14.7673 13.125C14.7673 12.9466 14.8178 12.7784 14.8986 12.6337C14.9255 12.5899 14.9524 12.5462 14.9827 12.5091C15.6861 11.4558 16.0933 10.2038 16.0933 8.86106C16.1 5.12548 12.9668 2.1 9.1 2.1C5.23318 2.1 2.1 5.12548 2.1 8.85433C2.1 12.5865 5.23318 15.6087 9.1 15.6087C10.0726 15.6087 10.9981 15.4168 11.8361 15.0736C11.8563 15.0635 11.8731 15.0567 11.8933 15.05C11.8966 15.05 11.9 15.05 11.9 15.0466C12.0178 15.0029 12.1457 14.9793 12.2769 14.9793C12.4216 14.9793 12.5596 15.0062 12.6841 15.0601L15.5111 16.1ZM18.511 19.4411L14.7861 18.0709L12.2852 17.1509C11.2673 17.5212 10.1977 17.7086 9.1 17.7086C6.68294 17.7086 4.40715 16.7973 2.69186 15.1424C0.95599 13.4676 0 11.2345 0 8.85433C0 3.97204 4.08224 0 9.1 0C11.5799 0 13.8968 0.952888 15.6239 2.68315C17.285 4.34717 18.1974 6.54254 18.1933 8.86484C18.1933 10.4245 17.7727 11.9457 16.9729 13.289L17.5484 15.5907L18.511 19.4411Z" fill="white"/>
</svg>
