<svg width="17" height="20" viewBox="0 0 17 20" fill="none" xmlns="http://www.w3.org/2000/svg">
<path d="M8.5 20C9.02995 19.9984 9.53773 19.7872 9.91247 19.4125C10.2872 19.0377 10.4984 18.5299 10.5 18H6.5C6.50158 18.5299 6.7128 19.0377 7.08753 19.4125C7.46227 19.7872 7.97005 19.9984 8.5 20ZM15 14V8.5C15.0061 7.03811 14.5143 5.6177 13.6055 4.4726C12.6967 3.32751 11.4251 2.52599 10 2.2V1.5C10 1.10218 9.84196 0.720644 9.56066 0.43934C9.27936 0.158035 8.89782 0 8.5 0C8.10218 0 7.72064 0.158035 7.43934 0.43934C7.15804 0.720644 7 1.10218 7 1.5V2.2C5.57491 2.52599 4.30328 3.32751 3.39448 4.4726C2.48567 5.6177 1.99386 7.03811 2 8.5V14L0 16V17H17V16L15 14ZM13 15H4V8.5C4 7.30653 4.47411 6.16193 5.31802 5.31802C6.16193 4.47411 7.30653 4 8.5 4C9.69347 4 10.8381 4.47411 11.682 5.31802C12.5259 6.16193 13 7.30653 13 8.5V15Z" fill="white"/>
</svg>
