<svg width="190" height="36" viewBox="0 0 190 36" fill="none" xmlns="http://www.w3.org/2000/svg">
<path d="M21.6585 0.0362244H19.1695C18.8854 0.0362244 18.613 0.149016 18.4122 0.349855C18.2114 0.550694 18.0985 0.823117 18.0985 1.10715V9.41096C17.4818 8.91247 16.8111 8.48461 16.0991 8.13535C14.6174 7.42569 12.9932 7.06388 11.3503 7.07752C9.88702 7.06117 8.43621 7.34845 7.08953 7.92117C5.74285 8.49389 4.52956 9.33957 3.52628 10.4049C2.47653 11.4599 1.64912 12.7148 1.09304 14.0953C0.536963 15.4758 0.263528 16.9538 0.288911 18.4419C0.267864 19.9189 0.545849 21.385 1.10614 22.7519C1.66644 24.1187 2.49746 25.358 3.5492 26.3953C4.5646 27.4569 5.78757 28.2983 7.14202 28.8671C8.49648 29.4358 9.95346 29.7198 11.4224 29.7014C13.1082 29.7106 14.7774 29.3682 16.3235 28.6961C17.9409 27.9603 19.3799 26.8832 20.5417 25.5389C20.5869 25.4884 20.6269 25.4335 20.6613 25.3751C21.7376 23.652 22.441 21.7226 22.7262 19.711C22.7288 19.6668 22.7288 19.6224 22.7262 19.5783V1.10715C22.7262 0.823683 22.6138 0.5518 22.4136 0.351054C22.2135 0.150309 21.942 0.0370912 21.6585 0.0362244ZM16.3464 23.2021C15.7406 23.8387 15.0084 24.3417 14.1968 24.6787C13.3852 25.0157 12.5122 25.1793 11.6336 25.159C10.4589 25.1729 9.30285 24.8643 8.29145 24.2665C7.27171 23.6691 6.43214 22.8075 5.86138 21.7726C5.26005 20.7339 4.94635 19.5536 4.95256 18.3534C4.95146 17.1486 5.26653 15.9646 5.86629 14.9196C6.43619 13.866 7.28625 12.9904 8.32256 12.3897C9.31281 11.7998 10.445 11.4907 11.5976 11.4955C12.7862 11.4924 13.9545 11.8037 14.984 12.3979C16.0078 12.955 16.8519 13.7922 17.4173 14.8115C17.9979 15.8755 18.294 17.0712 18.277 18.2831C18.3072 19.1913 18.1515 20.0961 17.8195 20.9419C17.4875 21.7878 16.9862 22.5569 16.3464 23.2021Z" fill="white"/>
<path d="M35.8623 7.07762C34.2088 7.02756 32.5674 7.37425 31.0754 8.08877C29.5834 8.80329 28.2842 9.86485 27.2867 11.1845C25.5912 13.3448 24.7067 16.031 24.7868 18.776C24.867 21.521 25.9069 24.151 27.7255 26.2087C28.7531 27.3724 30.0289 28.2904 31.4588 28.8949C32.8887 29.4995 34.4361 29.7751 35.9868 29.7015C37.4319 29.7212 38.8685 29.4776 40.2263 28.9826C41.487 28.5028 42.6459 27.7894 43.6422 26.88C44.7316 25.8523 45.6201 24.6307 46.2622 23.2776C46.3857 23.0279 46.4073 22.74 46.3223 22.4747C46.2374 22.2094 46.0525 21.9876 45.807 21.8561L43.7093 20.7361C43.4673 20.6069 43.185 20.5755 42.9206 20.6483C42.6561 20.7211 42.4297 20.8926 42.2879 21.1274C41.7731 22.0568 41.1236 22.9051 40.3606 23.6444C39.7486 24.1584 39.0499 24.5593 38.2973 24.8282C37.4899 25.1309 36.6346 25.2857 35.7723 25.2851C34.9495 25.3055 34.1317 25.1511 33.3729 24.8321C32.6142 24.5132 31.9317 24.0368 31.3706 23.4347C30.3792 22.4041 29.7524 21.0773 29.5857 19.6569H45.9429C46.0839 19.6569 46.2236 19.6291 46.3538 19.575C46.4841 19.5208 46.6024 19.4416 46.7019 19.3416C46.8014 19.2416 46.8802 19.123 46.9337 18.9925C46.9872 18.862 47.0145 18.7222 47.0138 18.5811C47.0845 15.9468 46.2499 13.3679 44.6492 11.2746C43.6225 9.92817 42.2902 8.84533 40.7623 8.11556C39.2344 7.38579 37.5549 7.03006 35.8623 7.07762ZM30.208 15.3634C30.5357 14.5446 31.0348 13.8053 31.6719 13.1953C32.8202 12.1479 34.3282 11.5837 35.882 11.6201C36.8746 11.6195 37.8553 11.8375 38.7542 12.2587C39.5902 12.631 40.3288 13.1914 40.9124 13.8962C41.2589 14.3448 41.5385 14.8412 41.7427 15.3699L30.208 15.3634Z" fill="white"/>
<path d="M68.0198 8.56445C67.9228 8.41374 67.7895 8.28978 67.6322 8.20395C67.4748 8.11812 67.2984 8.07319 67.1192 8.07322H64.4337C64.2268 8.0715 64.0238 8.12981 63.8494 8.24113C63.6751 8.35245 63.5367 8.512 63.4512 8.70038L57.9491 20.7607L52.4012 8.69708C52.3156 8.51114 52.1785 8.35363 52.0061 8.24333C51.8337 8.13302 51.6332 8.07456 51.4285 8.07482H48.7626C48.5831 8.0749 48.4065 8.12007 48.249 8.20625C48.0916 8.29242 47.9583 8.41681 47.8614 8.56795C47.7646 8.7191 47.7073 8.8922 47.6948 9.07128C47.6823 9.25036 47.715 9.42967 47.79 9.5928L56.7685 29.0973C56.854 29.2834 56.991 29.441 57.1634 29.5516C57.3358 29.6622 57.5363 29.721 57.7411 29.7211H58.1849C58.3902 29.7212 58.5912 29.6623 58.7639 29.5514C58.9366 29.4405 59.0739 29.2822 59.1593 29.0956L68.0853 9.5912C68.1615 9.42832 68.1954 9.24882 68.184 9.06938C68.1725 8.88995 68.1161 8.71633 68.0198 8.56445Z" fill="white"/>
<path d="M102.48 8.15339C103.886 8.12079 105.283 8.39494 106.572 8.95686C107.862 9.51877 109.013 10.3549 109.947 11.4071C111.711 13.3307 112.672 15.8566 112.632 18.4664C112.656 21.1212 111.634 23.6787 109.788 25.5864C108.831 26.5523 107.692 27.3191 106.437 27.8424C105.182 28.3656 103.836 28.635 102.476 28.635C101.117 28.635 99.7706 28.3656 98.5156 27.8424C97.2607 27.3191 96.1219 26.5523 95.165 25.5864C93.3699 23.6742 92.3584 21.1576 92.3305 18.5351C92.3026 15.9125 93.2604 13.3751 95.0143 11.4251C95.9451 10.3687 97.0955 9.5286 98.3851 8.96345C99.6746 8.3983 101.072 8.12183 102.48 8.15339ZM102.48 10.6097C101.476 10.6001 100.481 10.8007 99.5595 11.1986C98.6379 11.5966 97.8097 12.183 97.1283 12.9202C96.401 13.6539 95.828 14.5258 95.4432 15.4846C95.0585 16.4434 94.8697 17.4696 94.8882 18.5025C94.8812 19.8874 95.2333 21.2505 95.91 22.4588C96.5484 23.6418 97.5068 24.6212 98.6758 25.285C99.8441 25.9325 101.158 26.2722 102.494 26.2722C103.829 26.2722 105.143 25.9325 106.312 25.285C107.475 24.6198 108.427 23.6403 109.059 22.4588C109.73 21.2486 110.079 19.8863 110.073 18.5025C110.091 17.4696 109.903 16.4434 109.518 15.4846C109.133 14.5258 108.56 13.6539 107.833 12.9202C107.152 12.1816 106.324 11.5936 105.402 11.1939C104.48 10.7943 103.484 10.592 102.48 10.5999V10.6097Z" fill="white"/>
<path d="M116.864 1.56891H119.389V28.6108H116.864V1.56891Z" fill="white"/>
<path d="M133.794 8.15337C135.2 8.12088 136.597 8.39513 137.886 8.95704C139.176 9.51894 140.327 10.355 141.261 11.4071C143.025 13.331 143.985 15.8568 143.945 18.4664C143.969 21.1212 142.947 23.6788 141.101 25.5864C140.144 26.5523 139.005 27.3191 137.75 27.8423C136.495 28.3656 135.149 28.635 133.789 28.635C132.429 28.635 131.083 28.3656 129.828 27.8423C128.573 27.3191 127.434 26.5523 126.478 25.5864C124.683 23.6741 123.671 21.1576 123.643 18.5351C123.615 15.9125 124.573 13.3751 126.327 11.4251C127.258 10.3685 128.409 9.52819 129.698 8.96303C130.988 8.39788 132.386 8.12157 133.794 8.15337ZM133.794 10.6096C132.79 10.6001 131.795 10.8007 130.874 11.1986C129.952 11.5966 129.124 12.183 128.443 12.9202C127.715 13.6538 127.142 14.5257 126.757 15.4845C126.373 16.4433 126.184 17.4695 126.202 18.5025C126.195 19.8874 126.547 21.2505 127.224 22.4588C127.863 23.6415 128.821 24.6208 129.99 25.285C131.158 25.9323 132.472 26.272 133.808 26.272C135.144 26.272 136.457 25.9323 137.626 25.285C138.788 24.6196 139.74 23.6402 140.372 22.4588C141.043 21.2486 141.392 19.8863 141.385 18.5025C141.404 17.4695 141.215 16.4433 140.831 15.4845C140.446 14.5257 139.873 13.6538 139.145 12.9202C138.465 12.1813 137.637 11.5931 136.715 11.1934C135.794 10.7938 134.799 10.5916 133.794 10.5999V10.6096Z" fill="white"/>
<path d="M167.892 24.183C167.988 26.213 167.742 28.2446 167.163 30.1927C166.551 31.9344 165.338 33.4006 163.741 34.3275C161.955 35.3323 159.93 35.8326 157.882 35.775C156.347 35.7987 154.819 35.5583 153.366 35.0644C152.161 34.6626 151.053 34.0145 150.112 33.1615C149.127 32.1572 148.342 30.9746 147.8 29.6769H150.52C151.183 30.8863 152.18 31.8798 153.392 32.5393C154.75 33.1975 156.248 33.5144 157.756 33.4628C159.256 33.5101 160.745 33.1801 162.085 32.5032C163.148 31.9766 164.025 31.1393 164.601 30.1026C165.193 28.6188 165.448 27.022 165.347 25.4276V24.4319C164.431 25.6133 163.245 26.5583 161.889 27.1879C160.408 27.8788 158.783 28.2054 157.15 28.1405C155.517 28.0755 153.923 27.6209 152.501 26.8145C150.969 25.9767 149.701 24.7293 148.838 23.212C147.982 21.6754 147.54 19.9424 147.557 18.1834C147.573 16.4244 148.048 14.7 148.933 13.18C149.818 11.6599 151.084 10.3964 152.606 9.51394C154.127 8.63145 155.853 8.16025 157.612 8.14678C158.975 8.12863 160.33 8.35781 161.612 8.82312C162.899 9.3529 164.102 10.0654 165.185 10.9388C166.638 12.4469 167.594 14.3645 167.923 16.4327C167.902 16.7886 167.892 19.372 167.892 24.183ZM157.936 10.5638C156.55 10.5548 155.185 10.9106 153.98 11.5954C152.783 12.264 151.793 13.2478 151.117 14.4398C150.428 15.6342 150.069 16.9908 150.077 18.3699C150.047 19.3568 150.222 20.3393 150.593 21.2547C150.963 22.1701 151.52 22.9985 152.228 23.6869C153.77 25.0367 155.749 25.7822 157.798 25.7856C159.848 25.7889 161.829 25.0497 163.376 23.7049C164.082 22.9843 164.632 22.1265 164.993 21.1845C165.354 20.2426 165.517 19.2367 165.473 18.229C165.498 16.8571 165.165 15.5024 164.506 14.299C163.863 13.1535 162.915 12.209 161.768 11.5708C160.601 10.9039 159.279 10.5571 157.936 10.5655V10.5638Z" fill="white"/>
<path d="M171.126 8.64468H173.776L180.478 23.6672L186.984 8.64468H189.668L178.022 35.2592H175.372L179.124 26.6721L171.126 8.64468Z" fill="white"/>
<path d="M80.3847 8.6283H78.5425C76.5239 8.6283 74.588 9.43012 73.1606 10.8575C71.7332 12.2849 70.9314 14.2209 70.9314 16.2395V27.9919C70.9314 28.1023 70.9752 28.208 71.0532 28.286C71.1312 28.364 71.237 28.4078 71.3473 28.4078H73.0323C73.1426 28.4078 73.2484 28.364 73.3264 28.286C73.4044 28.208 73.4482 28.1023 73.4482 27.9919V16.3213C73.448 15.6165 73.5867 14.9185 73.8562 14.2673C74.1258 13.616 74.521 13.0243 75.0194 12.5258C75.5177 12.0273 76.1093 11.632 76.7604 11.3622C77.4116 11.0924 78.1095 10.9535 78.8144 10.9535H80.1129C81.5365 10.9535 82.9019 11.519 83.9085 12.5257C84.9152 13.5323 85.4807 14.8977 85.4807 16.3213V27.9919C85.4807 28.1023 85.5245 28.208 85.6025 28.286C85.6805 28.364 85.7863 28.4078 85.8966 28.4078H87.5816C87.6919 28.4078 87.7977 28.364 87.8757 28.286C87.9537 28.208 87.9976 28.1023 87.9976 27.9919V16.2395C87.9976 15.2398 87.8006 14.2499 87.418 13.3264C87.0354 12.4028 86.4746 11.5638 85.7677 10.857C85.0608 10.1502 84.2215 9.58958 83.2979 9.20718C82.3743 8.82478 81.3844 8.62808 80.3847 8.6283Z" fill="white"/>
</svg>
